<?xml version="1.0" encoding="UTF-8"?>
<svg version="1.1" viewBox="0 0 1104.7 800" xmlns="http://www.w3.org/2000/svg">
 <g transform="translate(-572.16 320.7)">
  <path d="m764.93-45.222c-168.76-238.51 40.081-414.93 211.1-123.84" fill="#b3b3b3"/>
  <path d="m1347.6-191.58c245.5-249.62 309.53 121.04 160.43 237.84" fill="#b3b3b3"/>
  <path d="m771.97-48.037c-85.806-131.5-79.504-293.07 74.588-237.84-5.6667 65.773 31.341 101.9 67.551 153.4" fill="#050505"/>
  <path d="m1374.3-177.51c184.17-193.19 266.51 47.306 108.36 192.8" fill="#050505"/>
  <path d="m1180-276.88c-129.64-0.21505-260.36 87.243-375.15 195.48-85.116 80.261-106.74 83.29-232.67 224.73l1.4777 0.12314c134.55 225.61 266.13 295.06 529.07 301.08 262.94 6.0202 405.5-29.602 572.78-188.71l1.3548 0.12314c-0.089-0.39019-0.1576-0.78098-0.2463-1.1698 0-2e-3 0.2463-0.24628 0.2463-0.24628l-0.3696-0.18461c-32.245-138.92-143.77-193.1-157.8-261.98-103.5-196.16-220.67-269.05-338.7-269.25z" fill="#050505"/>
  <path d="m953.51 34.995c-10.978 65.089-84.553 83.059-142.14 64.736l21.11 23.924c-46.174 5.3586-74.787 2.7696-118.21-7.0366l33.776 30.961c-52.166 5.084-103.25-4.5338-154.8-11.259 86.101-78.143 199.79-129.25 291.31-170.28 45.631 21.762 144.14 0.96843 192.31-66.49-16.894 56.389-90.411 204.64-98.017 257.88l-9.8512-45.034c-20.032-27.651-14.586-43.405-15.48-77.402z" fill="#b3b3b3"/>
  <path d="m1095.7-102.79c-17.421 55.22-40.509 220.01-38.027 277.1 18.448-55.094 24.209-46.054 75.995-73.18-14.385-31.598 7.2284-28.445 36.59-46.441-3.8209 19.383-12.778 33.65-23.924 49.256 37.778 38.392 113.2 54.257 149.18 45.034-23.141 30.851 28.473 36.006 49.404 41.663 64.562 17.218 129.76 14.944 199.69 16.036-52.126-54.594-109.07-82.527-178.73-106.96-15.548-71.34-30.107-75.925-95.697-94.29-28.606-58.311-36.523-44.445-90.068-18.295-43.589 50.325-67.427-10.728-84.409-89.932z" fill="#b3b3b3"/>
  <path d="m934.51 202.46c-49.927 58.393-94.149 108.6-80.92 187.88 16.692 100.03 132.77 105.62 208.99 66.144 48.68-19.087 100.53-28.917 151.29-40.812-22.216-44.138-51.995-60.244-90.068-90.772l4.222-33.072-43.627-18.999 11.962-34.479-42.219-3.5183-0.7036-44.33c-23.399 22.46-26.523 22.466-56.293 29.554-4.783-22.717-10.702-43.298-23.221-62.625 11.169 12.149-28.869 77.691-33.072 67.551-2.111-7.0366-6.3329-22.517-6.3329-22.517z" fill="#b3b3b3"/>
  <path d="m928.18 307.31c-17.826 16.267-38.078 28.753-58.403 41.516-10.117 33.291-7.6426 50.204 4.9256 81.624 27.061 13.213 95.897 31.134 118.21-0.70365 7.1517-14.54 20.97-57.707 12.666-71.773-20.977-9.6345-8.9419-40.866-18.999-44.33-11.258-3.5183-58.403-6.3329-58.403-6.3329z"/>
  <path d="m1123.1 208.09c16.71-66.963 54.928-71.29 113.99-49.96 4.0147 71.352-59.784 79.261-113.99 49.96z" fill="none" stroke="#b3b3b3" stroke-linejoin="round" stroke-width="4.3345"/>
  <path d="m870.48 132.1c-17.766 60.869 17.65 69.823 68.958 56.996 1.8252-40.941-25.344-80.786-68.958-56.996z" fill="none" stroke="#b3b3b3" stroke-linejoin="round" stroke-width="4.3345"/>
  <path transform="matrix(1.9702 0 0 1.9702 -555.13 -465.03)" d="m743.21 308.08c0 1.3807-2.1586 2.5-4.8214 2.5s-4.8214-1.1193-4.8214-2.5 2.1586-2.5 4.8214-2.5 4.8214 1.1193 4.8214 2.5z" color="#000000" fill="#b3b3b3"/>
  <path transform="matrix(1.9702 0 0 1.9702 -555.13 -465.03)" d="m888.57 320.22c0 1.578-3.3579 2.8571-7.5 2.8571s-7.5-1.2792-7.5-2.8571 3.3579-2.8571 7.5-2.8571 7.5 1.2792 7.5 2.8571z" color="#000000" fill="#b3b3b3"/>
  <path transform="matrix(1.9702 0 0 1.9702 -555.13 -465.03)" d="m766.43 411.65c0 3.5504-5.4365 6.4286-12.143 6.4286-6.7063 0-12.143-2.8782-12.143-6.4286s5.4365-6.4286 12.143-6.4286c6.7063 0 12.143 2.8782 12.143 6.4286z" color="#000000" fill="#b3b3b3"/>
  <path d="m1113.7 340.59c118.48-77.039 270.43-104.92 385.11-95.532-152.9-1.6769-255.13 30.151-374.91 104.99" fill="#b3b3b3"/>
  <path d="m1145 354.52c227.51-64.916 401.6-47.375 498.76-24.692-149.19-25.999-329.77-15.843-496 31.423" fill="#b3b3b3"/>
  <path d="m1164.4 367.95c263.05-52.955 363.6-21.592 492.73-5.0542-166.85-30.707-331.02-27.136-492.56 9.8512" fill="#b3b3b3"/>
  <path d="m1166.9 378.9c143.66-14.325 267.32 11.35 394.57 29.854-134.48-17.593-269.86-37.79-394.07-25.873" fill="#b3b3b3"/>
  <path d="m1175.9 392.33c92.634-4.1346 206.04 18.041 317.94 38.312-108.17-14.934-219.37-33.509-314.96-33.337" fill="#b3b3b3"/>
  <path d="m874.86 305.76c-25.246-33.834-64.182-67.668-98.517-101.5 32.665 34.944 72.861 68.468 94.536 105.48" fill="#b3b3b3"/>
  <path d="m867.67 308.72c-74.444-60.554-158.79-97.339-238.19-146.01 78.459 49.603 158.81 91.649 235.37 148.82" fill="#b3b3b3"/>
  <path d="m861.33 312.94c-63.798-48.368-137.58-75.35-207.23-111.18 70.211 37.593 148.89 71.233 206.52 114.7" fill="#b3b3b3"/>
  <path d="m859.57 319.27c-74.118-49.311-148.24-79.754-222.36-119.62 73.889 41.392 153.39 75.304 221.65 124.2" fill="#b3b3b3"/>
  <path d="m856.41 329.83c-67.037-51.062-130.01-67.301-184.01-85.846 45.022 15.179 130.63 47.839 183.65 90.42" fill="#b3b3b3"/>
  <path d="m857.81 353.75c-65.134-23.904-128.16-38.993-195.62-52.422 66.788 11.194 129.71 35.514 193.51 57.348" fill="#b3b3b3"/>
 </g>
</svg>
