<svg xmlns="http://www.w3.org/2000/svg" viewBox="0 0 513.3 513.86">
    <defs>
        <style>.cls-1{fill:none;stroke:#1d1d1b;stroke-linecap:round;stroke-width:15px;}</style>
    </defs>
    <g id="Слой_2" data-name="Слой 2">
        <g id="Слой_4_копия_" data-name="Слой 4 (копия)">
            <path class="cls-1"
                  d="M349.44,32.82q6.29-.57,12.51-1.58c23.93-3.92,51.35-7.46,70.3-23.71a.14.14,0,0,1,.23.11c.08,23.67.41,48.51-9,71.07l-1.61,3.84a.28.28,0,0,0,.33.38c22.67-6,47.17-11,65.52-26.46a.82.82,0,0,1,1.33.82,249.8,249.8,0,0,1-16.75,49.61,2.34,2.34,0,0,0,.59,2.78c14,12.17,27.88,23.77,32.94,42.63"/>
            <path class="cls-1"
                  d="M386.32,304l-15.09,20.33a157.31,157.31,0,0,1-29.56,30.28l-7.84,6.12a55.94,55.94,0,0,1-25.32,11.1l-9.44,1.56"/>
            <path class="cls-1"
                  d="M277.09,44.1a529.87,529.87,0,0,0-115.8,69.79c-29.53,23.39-76.36,58-88.81,94.76a88.48,88.48,0,0,0-4.59,27.66l-.13,17.82c-.1,2.1-.27,11.27-.25,13.37.18,12.47,2,26.24.38,38.49-3.46,25.34-18.73,46.07-33.95,65.75C26.79,381,14.06,398,14.06,398c-.88,2.3-7.73,8-6.39,13.63C11.16,426.31,37,435.24,49.26,434"/>
            <path class="cls-1"
                  d="M299.06,373.34c-46.5,7.25-88.15,23.94-128.78,47.17C158.87,427,146.42,432.88,133.15,434s-26.79-3.92-40.54-3.21c-1.84.1-3.75.22-5.78.36l-34.46,2.41c-1,.07-2.09.12-3.13.17"/>
            <line class="cls-1" x1="145.54" y1="399.67" x2="114.91" y2="431.19"/>
            <path class="cls-1" d="M309.47,506.36c8.36-44.39,8.53-91.19-10-133.2"/>
            <line class="cls-1" x1="299.07" y1="373.4" x2="299.07" y2="373.4"/>
            <path class="cls-1"
                  d="M196.11,86.16V83.5c0-2.77.15-5.54.42-8.29a75.31,75.31,0,0,1,2.66-15.48l3-10.6A91.74,91.74,0,0,1,217.88,18h0a4.81,4.81,0,0,1,6.9-.67l2.15,1.84a101,101,0,0,1,21.88,26.44l5.29,9.24"/>
            <path class="cls-1"
                  d="M119.33,193.22l3.2-1.4a24.21,24.21,0,0,1,9.74-2,28.88,28.88,0,0,1,13.53,3.37l4,2.11a91.69,91.69,0,0,1,10,6.17L172,210.08"/>
            <path class="cls-1"
                  d="M34.69,370l4.67,8.81a84.86,84.86,0,0,1,5.84,13.92L47,398.28a70.58,70.58,0,0,1,3.32,21.39v.23a82.22,82.22,0,0,1-.58,9.8l-.47,4"/>
            <line class="cls-1" x1="49.24" y1="433.73" x2="49.23" y2="433.74"/>
            <circle class="cls-1" cx="120.63" cy="279.91" r="19.44" transform="translate(-61.08 35.2) rotate(-13.28)"/>
            <path class="cls-1"
                  d="M67,312.93c19.2,13.34,37,32,58.14,42.14,20.63,9.92,47.09,5.57,67.5-2.57,26.68-10.64,73.12-33,71.55-67.1-.51-11.06-4.56-21.61-8.73-31.87-5.07-12.5-13.65-6.33-23.89-3.68-12.41,3.23-25,5.91-37.9,6C174.17,256,162.3,245.62,147,235c-8-5.58-17.36-10.25-27.07-9.32C104,227.16,87.78,243.2,77,253.91l-9.37,9.3"/>
            <path class="cls-1"
                  d="M277.46,44.94A82.15,82.15,0,0,1,299,30.23l3.08-1.45A41.22,41.22,0,0,1,322.28,25l4.35.28,1.62.14"/>
            <path class="cls-1" d="M328.25,25.38c7.89.73,15.32,3,21.19,7.44"/>
            <path class="cls-1"
                  d="M237.15,102l10.79-18.36a176.05,176.05,0,0,1,13.69-20l7.81-9.92a83.41,83.41,0,0,1,8-8.77"/>
            <path class="cls-1"
                  d="M312.06,166c10.47-8.24,22.65-14.26,32.27-23.81a85.37,85.37,0,0,0,21.88-36.5c7.3-25.09,1.69-54.32-16.75-72.83"/>
            <line class="cls-1" x1="320.19" y1="34.96" x2="328.25" y2="25.38"/>
            <path class="cls-1" d="M276.44,125.83c5.13-16.33,7.41-32.51,14.87-48.26A168.87,168.87,0,0,1,320.13,34.9"/>
            <line class="cls-1" x1="328.25" y1="25.38" x2="328.27" y2="25.35"/>
        </g>
    </g>
</svg>